<?xml version="1.0" encoding="iso-8859-1"?>
<!-- Generator: Adobe Illustrator 18.0.0, SVG Export Plug-In . SVG Version: 6.00 Build 0)  -->
<!DOCTYPE svg PUBLIC "-//W3C//DTD SVG 1.1//EN" "http://www.w3.org/Graphics/SVG/1.1/DTD/svg11.dtd">
<svg version="1.1" id="Capa_1" xmlns="http://www.w3.org/2000/svg" xmlns:xlink="http://www.w3.org/1999/xlink" x="0px" y="0px"
	 viewBox="0 0 357.949 357.949" style="enable-background:new 0 0 357.949 357.949;" xml:space="preserve">
<g>
	<path d="M207.868,232.91h-57.779c-2.182,0-3.952,1.774-3.952,3.952v16c0,2.183,1.771,3.952,3.952,3.952h57.781
		c1.072,0,2.04-0.401,2.796-1.156c0.755-0.754,1.153-1.718,1.153-2.792h0.001v-16.004C211.82,234.684,210.047,232.91,207.868,232.91
		z"/>
	<path d="M109.257,228.207c-9.295,0-16.854,7.561-16.854,16.85c0,9.295,7.56,16.858,16.854,16.858
		c9.299,0,16.859-7.564,16.859-16.858C126.116,235.768,118.556,228.207,109.257,228.207z"/>
	<path d="M231.085,159.026c-0.552-3.146-2.965-5.424-6.135-5.793c-15.25-1.789-30.72-2.698-45.969-2.698
		c-15.256,0-30.719,0.907-45.976,2.696c-3.173,0.371-5.582,2.646-6.137,5.789l-5.799,33.031l-0.819,4.662h117.453L231.085,159.026z"
		/>
	<path d="M248.7,228.207c-9.298,0-16.86,7.561-16.86,16.85c0,9.295,7.563,16.858,16.86,16.858c9.295,0,16.854-7.564,16.854-16.858
		C265.554,235.768,257.995,228.207,248.7,228.207z"/>
	<path d="M341.627,100.896l-160-100.134c-1.622-1.016-3.683-1.016-5.305,0l-160,100.134c-1.46,0.914-2.348,2.515-2.348,4.238
		v247.815c0,2.761,2.239,5,5,5h320c2.761,0,5-2.239,5-5V105.134C343.975,103.411,343.087,101.81,341.627,100.896z M289.074,196.598
		c-0.783,1.212-2.052,2.026-3.48,2.234l-17.45,2.536l0.25,1.422h3.485c4.347,0,8.438,1.697,11.517,4.779
		c3.08,3.081,4.776,7.171,4.775,11.517v56.919c0,8.364-6.269,15.335-14.581,16.214v22.217c0,2.761-2.239,5-5,5h-34.002
		c-2.761,0-5-2.239-5-5v-22.128H128.362v22.128c0,2.761-2.239,5-5,5H89.358c-2.761,0-5-2.239-5-5v-22.217
		c-8.313-0.879-14.581-7.85-14.581-16.214v-56.921c0-8.984,7.312-16.294,16.3-16.294h3.479l0.25-1.422l-17.45-2.536
		c-1.428-0.208-2.696-1.022-3.48-2.234c-1.463-2.264-6.122-10.009-4.614-14.6c0.388-1.182,1.203-2.176,2.285-2.79
		c0.051-0.029,0.156-0.087,0.208-0.113c1.584-0.802,3.604-1.178,6.232-1.178c6.847,0,15.598,2.621,20.204,4.183
		c2.338-13.311,4.676-26.619,7.02-39.928c1.259-7.148,6.944-12.519,14.147-13.363c21.479-2.515,43.222-3.791,64.624-3.791
		c21.403,0,43.142,1.275,64.611,3.79c7.099,0.834,12.917,6.33,14.153,13.365l7.014,39.926c4.604-1.561,13.353-4.182,20.203-4.182
		c2.592,0,4.671,0.387,6.179,1.15c0.093,0.047,0.237,0.126,0.327,0.178c1.05,0.617,1.839,1.595,2.219,2.752
		C295.196,186.59,290.538,194.334,289.074,196.598z"/>
</g>
<g>
</g>
<g>
</g>
<g>
</g>
<g>
</g>
<g>
</g>
<g>
</g>
<g>
</g>
<g>
</g>
<g>
</g>
<g>
</g>
<g>
</g>
<g>
</g>
<g>
</g>
<g>
</g>
<g>
</g>
</svg>
